<?xml version="1.0" standalone="no"?>
<!DOCTYPE svg PUBLIC "-//W3C//DTD SVG 20010904//EN"
 "http://www.w3.org/TR/2001/REC-SVG-20010904/DTD/svg10.dtd">
<svg version="1.0" xmlns="http://www.w3.org/2000/svg"
 width="747.000000pt" height="1280.000000pt" viewBox="0 0 747.000000 1280.000000"
 preserveAspectRatio="xMidYMid meet">
<metadata>
Created by potrace 1.15, written by Peter Selinger 2001-2017
</metadata>
<g transform="translate(0.000000,1280.000000) scale(0.100000,-0.100000)"
fill="#000000" stroke="none">
<path d="M4201 12789 c-218 -25 -359 -101 -411 -220 -40 -94 -16 -100 117 -29
155 83 213 95 443 94 152 0 255 -7 467 -32 231 -27 619 -52 588 -38 -5 3 -158
37 -340 76 -181 39 -421 91 -533 116 -214 46 -214 46 -331 33z"/>
<path d="M5580 12479 c-61 -11 -78 -22 -63 -41 237 -299 264 -347 271 -473 8
-144 -28 -237 -159 -412 l-68 -92 45 -21 c57 -28 94 -23 190 24 69 35 117 74
200 167 32 35 57 51 109 70 63 22 71 28 93 70 55 109 52 319 -8 444 -76 159
-250 260 -465 270 -49 2 -115 0 -145 -6z"/>
<path d="M5100 12436 c-87 -19 -163 -44 -345 -114 -441 -167 -668 -205 -859
-141 -75 25 -149 74 -154 103 -2 9 4 26 13 36 14 16 14 18 0 24 -27 10 -55
-29 -55 -76 0 -75 87 -196 170 -238 53 -26 87 -32 175 -30 112 4 137 2 148 -9
19 -19 -84 -249 -189 -427 -30 -50 -54 -101 -54 -113 0 -12 11 -43 24 -70 40
-79 65 -168 85 -314 22 -150 38 -194 83 -232 36 -30 63 -31 148 -5 148 45 190
16 229 -163 10 -45 21 -75 24 -67 3 8 24 96 47 195 22 99 43 188 46 198 11 35
-79 21 -280 -44 -116 -37 -144 -24 -166 76 -5 28 -20 71 -31 97 l-21 46 21 63
c29 88 28 132 -5 158 -15 12 -35 21 -44 21 -53 0 -50 63 9 186 21 45 58 144
81 220 61 204 51 190 198 267 167 86 281 136 427 185 207 69 208 67 49 -51
-216 -160 -293 -238 -314 -318 -10 -37 1 -119 17 -119 3 0 70 38 148 85 78 47
179 101 223 120 90 39 207 73 218 63 10 -11 -13 -60 -47 -95 -16 -18 -64 -59
-107 -91 -80 -61 -121 -102 -92 -90 8 4 43 18 78 32 78 33 139 41 172 24 47
-25 40 -43 -73 -175 -90 -104 -195 -256 -248 -357 -70 -134 -89 -207 -89 -335
1 -178 24 -291 60 -291 20 0 26 36 60 314 29 239 31 244 70 182 11 -19 37 -49
57 -66 l36 -32 32 60 c41 77 102 162 206 287 227 275 309 427 309 576 0 92
-10 112 -77 156 -32 21 -62 41 -66 44 -4 3 -3 27 3 54 18 81 -22 158 -99 191
-41 17 -173 17 -251 0z"/>
<path d="M3876 12393 c18 -77 76 -124 183 -149 55 -13 56 -13 290 56 129 39
237 72 239 75 12 11 -74 4 -255 -22 -220 -32 -253 -29 -381 32 -41 19 -76 35
-78 35 -3 0 -2 -12 2 -27z"/>
<path d="M1549 11897 c-82 -35 -123 -61 -127 -81 -2 -10 16 -62 41 -115 47
-99 87 -211 87 -241 0 -30 -37 -66 -82 -79 -60 -18 -88 -38 -88 -64 0 -45 11
-49 84 -31 109 27 138 -1 157 -148 11 -86 28 -132 54 -142 58 -22 123 11 196
101 67 81 79 103 79 139 0 39 -97 472 -115 511 -7 17 -35 46 -62 64 -26 17
-64 47 -83 65 -48 45 -74 49 -141 21z"/>
<path d="M4597 11558 c-83 -144 -123 -259 -114 -333 6 -61 29 -85 80 -85 39 0
39 0 33 33 -3 17 -9 88 -12 157 -6 115 -5 131 18 198 13 39 23 72 22 72 -1 0
-13 -19 -27 -42z"/>
<path d="M143 11416 c-33 -15 -105 -99 -130 -151 -13 -29 -10 -42 71 -275 46
-135 96 -287 111 -339 41 -148 83 -211 141 -211 23 0 23 3 26 102 2 84 6 103
19 106 28 5 67 -48 94 -128 32 -97 52 -118 95 -100 64 27 67 93 9 252 -61 170
-62 174 -55 201 6 26 20 33 114 57 97 25 69 135 -43 170 -76 24 -104 48 -141
124 -43 84 -92 139 -156 172 -61 31 -115 38 -155 20z"/>
<path d="M1125 11386 c-27 -12 -103 -56 -168 -96 -106 -65 -122 -72 -157 -67
-75 10 -81 -38 -14 -112 45 -50 150 -131 187 -144 15 -6 17 3 17 98 0 151 27
152 50 2 16 -107 4 -143 -51 -152 -21 -4 -36 -11 -33 -16 3 -5 38 -31 77 -56
99 -65 268 -236 429 -438 165 -206 218 -261 356 -368 216 -166 282 -270 222
-347 -29 -37 -25 -54 28 -100 49 -42 192 -120 221 -120 10 0 67 16 127 36 60
19 181 51 269 70 251 56 352 43 403 -49 14 -27 17 -57 16 -182 -1 -159 0 -153
-93 -587 -59 -273 -91 -504 -98 -710 -5 -135 -9 -178 -19 -178 -24 0 -291 51
-524 101 -951 203 -1263 254 -1686 275 -124 6 -142 4 -157 -11 -9 -9 -17 -22
-17 -28 0 -7 -16 -25 -35 -40 -62 -49 -43 -70 77 -87 40 -6 273 -38 518 -70
245 -33 663 -89 930 -124 267 -36 548 -70 625 -76 149 -12 249 -31 275 -55 9
-8 29 -56 45 -106 15 -50 36 -100 47 -112 l18 -22 21 25 c12 14 33 50 47 80
22 47 26 68 25 150 -1 52 -8 149 -17 215 -22 163 -20 204 13 400 67 385 142
609 255 763 25 34 46 70 46 79 0 9 -20 55 -44 102 -94 184 -152 409 -127 493
18 58 80 120 220 217 151 104 277 221 315 291 l28 52 -43 -7 c-77 -13 -270
-81 -374 -132 -55 -27 -201 -101 -325 -164 -124 -63 -261 -128 -305 -143 -44
-15 -115 -41 -158 -57 -43 -16 -86 -27 -95 -25 -10 3 -41 37 -70 76 -30 38
-104 116 -165 173 -112 103 -156 140 -405 335 -236 186 -610 592 -649 705 -14
39 -11 83 9 120 8 16 11 16 31 2 12 -8 25 -15 29 -15 18 0 6 56 -23 106 -35
63 -48 66 -124 30z"/>
<path d="M1392 11148 c-18 -18 -14 -87 7 -133 40 -89 232 -296 378 -408 117
-90 323 -196 323 -166 0 11 -134 141 -300 290 -84 76 -123 121 -195 227 -129
188 -174 229 -213 190z"/>
<path d="M4990 10946 c0 -18 7 -49 15 -69 22 -53 125 -177 227 -271 l91 -84
-59 -17 c-133 -38 -409 -131 -569 -193 -262 -100 -388 -156 -521 -233 -110
-63 -214 -108 -214 -92 0 3 27 54 60 112 87 155 157 310 183 401 12 44 25 80
30 80 4 0 45 -25 92 -57 47 -31 88 -53 91 -50 14 14 -21 79 -59 113 -50 42
-157 94 -247 120 -97 27 -222 23 -335 -10 -103 -31 -398 -154 -755 -314 -135
-60 -302 -131 -372 -157 -111 -42 -126 -50 -118 -65 29 -53 164 -52 359 5 136
39 350 122 651 252 412 179 516 213 548 181 20 -20 14 -103 -13 -175 -31 -80
-63 -140 -157 -286 -99 -155 -142 -248 -135 -294 6 -35 44 -85 78 -104 12 -6
63 17 190 87 243 133 714 367 899 446 323 137 451 174 645 188 171 12 249 30
266 61 9 17 8 25 -5 38 -14 13 -44 16 -189 17 -153 1 -177 3 -220 22 -105 48
-200 127 -357 300 -41 45 -81 82 -87 82 -8 0 -13 -13 -13 -34z"/>
<path d="M5880 10431 c-32 -60 8 -134 157 -291 60 -63 201 -230 313 -370 330
-414 378 -462 818 -805 134 -105 254 -199 267 -209 14 -11 28 -16 32 -12 23
23 -147 216 -382 431 -250 230 -353 341 -494 530 -176 237 -252 333 -387 491
-181 212 -293 293 -324 235z"/>
<path d="M5440 10063 c0 -85 -96 -193 -252 -285 -144 -84 -429 -200 -893 -363
-230 -81 -261 -94 -280 -114 -23 -26 -15 -46 50 -121 31 -35 52 -67 48 -71 -5
-3 -100 -67 -213 -141 -212 -139 -230 -157 -230 -219 0 -36 40 -179 50 -179 4
0 191 102 416 226 225 125 415 229 423 232 23 9 -14 -51 -56 -89 -95 -86 -399
-281 -674 -434 -285 -158 -451 -272 -511 -352 -35 -45 -36 -90 -6 -164 31 -75
45 -95 77 -109 38 -15 91 10 201 97 92 73 417 303 427 303 4 0 -8 -16 -27 -35
-19 -19 -30 -35 -26 -35 4 0 -2 -14 -14 -30 -25 -35 -107 -105 -355 -302 -208
-165 -314 -263 -397 -367 -98 -123 -161 -270 -188 -438 -12 -74 -12 -86 4
-121 10 -22 40 -61 67 -88 27 -27 49 -56 49 -65 0 -57 -355 -77 -595 -34 -283
51 -638 168 -917 304 -205 100 -459 240 -506 278 -43 35 -92 118 -92 156 0 27
-25 36 316 -109 143 -60 194 -75 194 -56 0 19 -53 55 -160 108 -63 31 -182 95
-264 141 -248 142 -450 233 -518 233 -42 0 -32 -17 43 -73 150 -112 241 -228
303 -390 48 -125 60 -199 53 -311 -8 -112 -33 -228 -87 -401 -81 -254 -99
-314 -106 -349 -6 -36 -6 -36 25 -30 26 5 36 1 65 -28 42 -42 53 -78 72 -238
9 -69 27 -175 40 -237 43 -201 30 -265 -81 -393 -67 -78 -103 -136 -107 -176
-5 -48 39 -44 155 16 101 51 127 59 127 38 0 -6 -54 -117 -120 -245 -112 -219
-137 -283 -109 -283 7 0 58 29 114 65 118 75 141 81 131 33 -6 -34 -101 -232
-156 -328 -18 -30 -26 -48 -18 -40 26 26 457 627 469 653 9 20 4 36 -34 113
-53 105 -70 123 -98 106 -24 -15 -24 -13 6 89 13 46 30 121 37 165 10 73 10
85 -5 108 -24 35 -59 34 -94 -4 -43 -46 -59 -27 -89 100 -53 220 -68 477 -43
740 6 63 14 221 18 350 8 261 12 280 67 280 20 0 55 -17 105 -51 251 -175 534
-312 904 -441 214 -75 362 -111 581 -143 171 -25 190 -25 555 -21 52 1 72 -3
88 -18 25 -23 52 -94 91 -237 64 -233 299 -789 403 -950 39 -61 109 -128 115
-111 2 7 -32 89 -76 184 -191 412 -263 613 -377 1048 -92 348 -104 443 -65
528 40 87 253 279 466 419 153 100 451 243 507 243 28 0 40 -10 29 -25 -9 -13
-308 -284 -390 -354 -72 -61 -92 -94 -92 -148 0 -41 22 -83 44 -83 7 0 53 24
102 53 49 30 143 84 209 121 66 38 150 88 186 112 88 58 202 165 223 208 25
52 20 138 -13 232 -36 104 -57 139 -234 377 -80 107 -150 204 -156 215 -26 48
-12 68 119 178 119 100 194 174 214 211 9 18 15 52 15 75 -1 24 3 52 9 63 5
11 50 42 99 69 303 168 494 318 623 486 67 87 106 125 138 135 16 5 32 24 47
60 13 29 29 56 34 60 19 11 55 -17 186 -145 101 -99 160 -147 265 -216 239
-156 340 -239 432 -356 57 -72 128 -182 128 -200 0 -3 -12 -21 -26 -38 -31
-36 -110 -78 -228 -121 -46 -16 -92 -36 -102 -44 -19 -13 -18 -14 0 -21 11 -4
72 -2 135 4 186 19 326 67 386 133 55 62 58 112 11 188 -25 39 -112 113 -565
476 -326 261 -535 439 -551 469 -9 17 -11 44 -7 85 6 54 4 63 -18 90 -42 49
-173 126 -247 145 -27 6 -28 5 -28 -31z"/>
<path d="M5541 8955 c-38 -35 -54 -41 -208 -76 -91 -22 -180 -47 -197 -57 -59
-34 -85 -136 -51 -202 19 -38 73 -53 152 -44 52 7 57 6 45 -8 -7 -9 -37 -28
-67 -43 -49 -24 -84 -59 -72 -71 2 -3 47 2 99 11 52 9 116 15 143 13 48 -3 51
-5 62 -39 6 -20 13 -97 14 -172 3 -112 1 -140 -12 -152 -10 -10 -48 -18 -108
-24 -51 -5 -98 -14 -104 -20 -6 -6 -10 -29 -8 -50 1 -21 -9 -81 -23 -132 -25
-91 -26 -96 -11 -169 8 -41 20 -101 26 -132 10 -58 58 -138 82 -138 39 0 359
50 375 59 11 6 49 46 85 89 86 102 140 151 240 216 70 46 355 196 371 196 3 0
97 43 208 96 232 110 372 168 513 214 212 70 301 132 324 226 15 60 2 104 -29
104 -42 0 -125 -41 -248 -123 -123 -82 -180 -111 -347 -177 -200 -79 -566
-281 -879 -484 -141 -92 -164 -102 -184 -82 -21 21 -17 133 9 201 32 86 91
138 262 229 82 44 168 97 191 118 43 37 65 78 43 78 -26 0 -113 -37 -322 -135
-209 -98 -358 -155 -370 -143 -3 3 3 51 15 106 11 55 20 126 20 159 0 32 6 69
13 83 18 36 79 48 212 42 128 -5 180 9 191 52 11 45 -3 74 -38 81 -60 13 -78
31 -78 79 0 43 -3 47 -82 121 -86 79 -144 119 -190 130 -21 5 -34 0 -67 -30z"/>
<path d="M383 8255 c-27 -14 -89 -60 -135 -103 -47 -43 -112 -97 -144 -121
-33 -24 -69 -56 -81 -71 l-22 -28 30 -133 c50 -223 104 -503 179 -929 109
-620 169 -898 254 -1190 62 -213 97 -361 99 -424 l2 -53 -75 -80 c-155 -165
-183 -282 -90 -375 43 -43 64 -46 121 -17 l41 20 -46 49 c-25 27 -46 56 -46
64 0 9 30 59 66 113 87 127 104 165 104 234 0 71 -33 249 -103 554 -101 434
-124 581 -192 1200 -56 511 -66 569 -121 730 -50 147 -56 212 -25 259 11 16
67 74 125 130 82 79 107 109 115 141 6 22 7 43 3 47 -5 5 -31 -3 -59 -17z"/>
<path d="M5131 8221 c-13 -8 -13 -12 -1 -26 28 -34 72 -48 148 -46 83 2 120
13 129 37 12 33 -24 44 -146 44 -64 0 -122 -4 -130 -9z"/>
<path d="M5630 7374 c-87 -8 -345 -45 -387 -56 -86 -21 -77 -61 16 -73 71 -9
91 -15 91 -24 0 -5 -12 -12 -27 -16 -15 -3 -33 -15 -40 -25 -8 -12 -32 -21
-65 -25 -65 -9 -98 -28 -98 -59 0 -62 78 -78 385 -80 206 -1 236 1 285 19 55
20 55 20 60 67 4 40 11 52 53 89 58 50 73 81 57 120 -17 40 -76 60 -190 64
-52 2 -115 1 -140 -1z"/>
<path d="M4664 7213 c14 -180 18 -657 7 -868 -25 -455 -137 -1451 -192 -1702
-27 -126 -74 -105 -191 87 -77 125 -138 165 -138 91 0 -94 143 -313 263 -405
l34 -26 64 20 c115 35 123 46 173 246 118 473 159 882 159 1584 0 503 -19 748
-74 927 -20 64 -65 123 -94 123 -16 0 -17 -8 -11 -77z"/>
<path d="M4956 4975 c-19 -19 -33 -70 -42 -151 l-6 -61 126 -107 c230 -196
373 -385 465 -616 53 -132 101 -299 101 -351 0 -39 -20 -79 -40 -79 -24 0 -42
24 -85 110 -60 121 -69 130 -122 130 -42 0 -45 -2 -41 -22 3 -13 57 -105 120
-205 189 -294 416 -714 523 -963 112 -259 166 -359 219 -402 32 -26 39 -11 32
66 -10 101 -55 225 -211 591 -208 486 -255 605 -360 915 -123 362 -182 512
-265 676 -100 194 -187 328 -265 411 -58 61 -76 73 -102 73 -17 0 -39 -7 -47
-15z"/>
<path d="M1586 4948 c-36 -48 -201 -596 -311 -1037 -37 -145 -84 -318 -107
-385 -48 -147 -129 -305 -208 -411 -35 -46 -60 -89 -60 -103 0 -23 3 -24 38
-17 62 11 104 36 168 100 97 96 206 268 267 420 74 183 477 1327 477 1353 0 5
-24 25 -53 44 -121 81 -170 89 -211 36z"/>
<path d="M600 4539 c-52 -31 -80 -60 -80 -82 0 -10 16 -46 36 -79 80 -137 114
-307 114 -569 0 -300 -35 -532 -105 -704 -14 -34 52 33 93 95 20 30 51 94 69
141 52 139 67 225 66 394 0 137 -3 165 -38 320 -36 163 -38 177 -36 338 l1
167 -42 0 c-26 0 -57 -9 -78 -21z"/>
<path d="M4570 4326 c0 -26 79 -251 125 -356 66 -151 157 -322 380 -715 352
-621 531 -921 619 -1037 96 -127 146 -213 146 -253 0 -15 -7 -39 -16 -55 -34
-57 13 -121 170 -229 58 -40 125 -95 150 -121 39 -42 46 -55 46 -91 0 -24 -8
-55 -20 -74 l-20 -32 34 -119 c19 -65 46 -161 60 -212 27 -97 85 -234 104
-246 6 -3 16 10 23 31 16 50 6 188 -25 334 -19 89 -25 142 -23 221 3 140 -10
168 -117 250 -245 188 -269 214 -271 302 -2 84 -37 155 -177 361 -341 504
-688 1121 -967 1723 -93 198 -154 297 -202 323 -15 7 -19 6 -19 -5z"/>
<path d="M6533 2628 c-12 -13 -38 -52 -58 -88 -21 -36 -69 -115 -107 -177
-120 -196 -148 -276 -148 -429 0 -100 9 -124 50 -124 30 0 76 31 185 125 81
69 122 97 129 86 10 -16 -11 -103 -49 -201 -42 -108 -54 -193 -35 -241 14 -32
82 -89 107 -89 18 0 17 47 -3 124 -20 79 -15 105 44 234 46 99 92 248 92 297
0 11 -7 31 -16 44 -26 37 -66 23 -212 -73 -72 -48 -146 -89 -163 -93 -32 -6
-32 -6 -27 28 7 43 58 131 164 282 82 116 114 188 114 255 0 65 -29 81 -67 40z"/>
<path d="M7101 1968 c-5 -18 -12 -62 -16 -98 -25 -270 -75 -479 -229 -967
-140 -441 -197 -573 -291 -670 -86 -89 -114 -74 -150 77 -20 80 -48 120 -87
120 -46 0 -68 -35 -68 -107 0 -102 118 -272 216 -309 42 -16 47 -16 85 1 84
38 208 197 343 440 153 276 412 835 488 1054 61 179 52 303 -26 355 -24 15
-26 15 -40 -6 -30 -46 -96 -200 -186 -433 -50 -132 -94 -242 -97 -245 -13 -13
36 185 83 335 44 139 74 286 74 362 0 71 -27 123 -64 123 -19 0 -27 -7 -35
-32z"/>
</g>
</svg>
