<?xml version="1.0" standalone="no"?>
<!DOCTYPE svg PUBLIC "-//W3C//DTD SVG 20010904//EN"
 "http://www.w3.org/TR/2001/REC-SVG-20010904/DTD/svg10.dtd">
<svg version="1.0" xmlns="http://www.w3.org/2000/svg"
 width="640.000000pt" height="1280.000000pt" viewBox="0 0 640.000000 1280.000000"
 preserveAspectRatio="xMidYMid meet">
<metadata>
Created by potrace 1.15, written by Peter Selinger 2001-2017
</metadata>
<g transform="translate(0.000000,1280.000000) scale(0.100000,-0.100000)"
fill="#000000" stroke="none">
<path d="M1900 12723 c-108 -102 -150 -187 -150 -309 l0 -51 -208 -204 c-114
-112 -279 -267 -367 -345 -234 -207 -337 -319 -507 -554 -113 -157 -280 -438
-286 -483 -7 -56 54 -172 133 -251 171 -171 534 -397 753 -470 167 -56 248
-68 515 -73 136 -3 247 -7 247 -10 0 -31 106 -732 125 -828 24 -120 41 -175
124 -405 54 -151 61 -391 21 -750 -5 -47 -13 -144 -16 -215 -6 -113 -4 -146
16 -240 23 -116 23 -174 -4 -270 -52 -185 -82 -276 -102 -317 -97 -192 -149
-484 -223 -1258 -33 -336 -84 -945 -126 -1485 -14 -181 -28 -336 -30 -342 -9
-27 235 -169 323 -188 32 -7 33 -9 28 -43 -8 -55 -24 -287 -31 -462 -11 -243
13 -663 73 -1335 l27 -300 -43 -40 -44 -40 -27 -224 -26 -224 -45 -34 c-265
-205 -637 -454 -763 -511 -72 -33 -84 -52 -74 -116 13 -78 31 -101 101 -130
99 -39 229 -58 396 -58 158 0 231 11 390 61 84 26 119 31 295 41 312 16 436
43 499 109 l26 27 -55 385 c-48 328 -60 394 -86 453 -35 82 -36 113 -14 401
24 297 49 477 115 810 33 165 67 345 75 400 19 130 19 331 -1 525 -10 100 -14
192 -10 260 10 170 -3 153 187 231 90 37 169 71 176 76 8 5 32 184 68 503 31
272 59 502 62 510 16 47 104 -345 193 -855 22 -132 45 -250 50 -261 14 -36
173 -120 312 -165 l127 -41 17 -57 c81 -278 97 -386 95 -644 -2 -261 7 -314
104 -614 101 -316 131 -433 210 -808 41 -196 41 -202 15 -229 -18 -20 -19 -30
-10 -216 9 -190 8 -201 -26 -455 -18 -143 -36 -272 -39 -287 -4 -25 4 -33 83
-88 48 -33 101 -79 117 -101 17 -23 42 -50 55 -60 64 -47 279 -74 505 -65 88
3 177 11 197 16 42 12 78 51 78 86 0 46 -44 137 -154 321 -62 104 -140 241
-174 305 l-62 117 -28 253 c-26 235 -30 256 -56 297 l-28 44 16 266 c52 848
46 1188 -25 1521 -11 52 -45 167 -75 256 -30 89 -54 163 -54 166 0 3 31 31 70
62 38 31 81 76 95 100 47 80 46 124 -11 641 -175 1572 -267 2076 -494 2710
-43 120 -70 210 -72 243 l-3 54 132 43 c176 58 268 108 397 214 108 89 109 90
259 141 83 28 187 69 231 91 141 71 189 114 285 257 23 34 76 100 117 145 41
45 86 103 99 129 50 95 27 214 -83 436 -124 251 -228 401 -462 663 -137 153
-149 171 -220 308 -99 192 -138 250 -234 346 -172 171 -366 231 -833 257
l-212 11 6 30 c3 16 15 74 27 130 l21 100 85 32 c115 43 145 59 213 119 175
155 246 312 247 548 0 293 -94 476 -343 662 -214 160 -372 194 -539 114 -40
-19 -120 -70 -177 -112 l-103 -77 -92 -10 c-117 -11 -180 -26 -209 -49 l-23
-18 23 66 c50 146 25 185 -184 282 -111 52 -111 52 -122 96 -12 46 -33 64 -75
64 -18 0 -30 9 -41 30 -16 31 -49 50 -87 50 -12 0 -36 15 -53 34 -21 24 -44
36 -71 41 -41 6 -44 8 -89 40 -20 14 -46 20 -84 20 -46 1 -76 11 -165 53 -60
29 -112 52 -117 52 -4 0 -44 -34 -89 -77z m1170 -860 c1 -8 -28 0 -43 11 -17
13 -17 15 0 50 l17 36 13 -47 c6 -27 12 -49 13 -50z m-1003 10 c139 -47 249
-55 368 -25 l80 20 52 -21 c48 -20 52 -25 55 -57 3 -33 8 -37 82 -75 l78 -39
25 28 c23 27 25 27 48 12 14 -9 25 -20 25 -24 1 -4 5 -27 9 -52 9 -43 8 -46
-35 -93 -74 -83 -62 -119 89 -252 160 -142 201 -226 178 -370 -7 -41 -20 -99
-29 -127 l-17 -51 -77 -25 -77 -24 -78 46 c-207 124 -318 161 -478 161 -94 -1
-132 -7 -259 -39 l-148 -38 -117 55 c-64 31 -144 63 -177 71 -66 17 -243 21
-326 7 -57 -9 -57 -11 -22 95 47 146 141 297 311 503 105 125 312 351 323 351
4 0 57 -17 117 -37z m2782 -2667 c34 -123 92 -226 167 -295 78 -71 194 -132
278 -146 l63 -10 -71 -130 c-138 -252 -234 -379 -326 -433 -59 -35 -159 -36
-235 -3 -72 31 -135 65 -135 72 0 3 45 204 100 445 133 583 133 584 136 581 1
-1 11 -38 23 -81z"/>
</g>
</svg>
